<svg xmlns="http://www.w3.org/2000/svg" viewBox="0 0 32 32">
  <defs>
    <linearGradient id="bananaGrad" x1="0%" y1="0%" x2="100%" y2="100%">
      <stop offset="0%" style="stop-color:#FFE566"/>
      <stop offset="50%" style="stop-color:#FFD700"/>
      <stop offset="100%" style="stop-color:#F4B400"/>
    </linearGradient>
    <linearGradient id="shadowGrad" x1="0%" y1="0%" x2="100%" y2="100%">
      <stop offset="0%" style="stop-color:#E6A800"/>
      <stop offset="100%" style="stop-color:#CC8800"/>
    </linearGradient>
  </defs>
  <!-- Background circle -->
  <circle cx="16" cy="16" r="15" fill="#1a1a1a"/>
  <!-- Banana shape - curved crescent -->
  <path d="M8 22 Q6 16 10 10 Q14 6 20 8 Q22 9 22 11 Q21 10 18 10 Q13 10 10 16 Q8 20 10 23 Q9 23 8 22Z" fill="url(#bananaGrad)"/>
  <!-- Banana highlight -->
  <path d="M10 12 Q13 8 18 10 Q16 9 13 11 Q11 13 10 16 Q10 14 10 12Z" fill="#FFF5CC" opacity="0.6"/>
  <!-- Banana tip -->
  <ellipse cx="9" cy="22" rx="1.5" ry="1" fill="#8B7355"/>
  <!-- Stem -->
  <path d="M20 8 Q22 6 24 7 Q23 8 21 9 Q20 9 20 8Z" fill="#4A7023"/>
</svg>
